<?xml version="1.0" encoding="UTF-8" standalone="no"?>
<svg
   width="16"
   height="16"
   version="1.1"
   id="svg2"
   sodipodi:docname="nwg-screenshot.svg"
   inkscape:version="1.3 (0e150ed6c4, 2023-07-21)"
   xml:space="preserve"
   xmlns:inkscape="http://www.inkscape.org/namespaces/inkscape"
   xmlns:sodipodi="http://sodipodi.sourceforge.net/DTD/sodipodi-0.dtd"
   xmlns="http://www.w3.org/2000/svg"
   xmlns:svg="http://www.w3.org/2000/svg"><defs
     id="defs2" /><sodipodi:namedview
     id="namedview2"
     pagecolor="#ffffff"
     bordercolor="#666666"
     borderopacity="1.0"
     inkscape:showpageshadow="2"
     inkscape:pageopacity="0.0"
     inkscape:pagecheckerboard="0"
     inkscape:deskcolor="#d1d1d1"
     inkscape:zoom="14.75"
     inkscape:cx="7.9661017"
     inkscape:cy="8.0338983"
     inkscape:window-width="2552"
     inkscape:window-height="1372"
     inkscape:window-x="0"
     inkscape:window-y="0"
     inkscape:window-maximized="1"
     inkscape:current-layer="svg2"
     showgrid="false" /><path
     id="path10"
     style="color:#000000;fill:#347284;fill-opacity:1;stroke-width:1.33334;stroke-linecap:round;stroke-linejoin:round;stroke-miterlimit:2;-inkscape-stroke:none"
     d="M 5.3733326,2.1946508 4.0399994,3.5279843 H 1.3333331 C 0.7066665,3.6079843 0,4.247984 0,4.8613176 v 8.0000004 c 0,0.613333 0.7066665,1.333333 1.3333331,1.333333 H 14.666667 c 0.626666,0 1.333333,-0.72 1.333333,-1.333333 V 4.8613176 C 16,4.247984 15.293333,3.5279843 14.666667,3.5279843 H 12.040001 L 10.706667,2.1946508 Z m 2.6266663,2.6666668 c 2.2133331,0 4.0000021,1.7866668 4.0000021,4.0000006 0,2.1999998 -1.786669,3.9999998 -4.0000021,3.9999998 -2.2133331,0 -3.9999995,-1.8 -3.9999995,-3.9999998 0,-2.2133338 1.7866664,-4.0000006 3.9999995,-4.0000006 z m 0,1.3333334 c -1.4666666,0 -2.6666663,1.1866666 -2.6666663,2.6666672 0,1.4666668 1.1999997,2.6666678 2.6666663,2.6666678 1.4799991,0 2.6666681,-1.200001 2.6666681,-2.6666678 0,-1.4800006 -1.186669,-2.6666672 -2.6666681,-2.6666672 z" /></svg>
