<?xml version="1.0" encoding="UTF-8" standalone="no"?>
<svg
   width="16"
   height="16"
   version="1.1"
   id="svg2"
   sodipodi:docname="screenshot.svg"
   inkscape:version="1.3 (0e150ed6c4, 2023-07-21)"
   xmlns:inkscape="http://www.inkscape.org/namespaces/inkscape"
   xmlns:sodipodi="http://sodipodi.sourceforge.net/DTD/sodipodi-0.dtd"
   xmlns="http://www.w3.org/2000/svg"
   xmlns:svg="http://www.w3.org/2000/svg">
  <defs
     id="defs2" />
  <sodipodi:namedview
     id="namedview2"
     pagecolor="#ffffff"
     bordercolor="#666666"
     borderopacity="1.0"
     inkscape:showpageshadow="2"
     inkscape:pageopacity="0.0"
     inkscape:pagecheckerboard="0"
     inkscape:deskcolor="#d1d1d1"
     inkscape:zoom="14.75"
     inkscape:cx="7.9661017"
     inkscape:cy="7.9661017"
     inkscape:window-width="2552"
     inkscape:window-height="1372"
     inkscape:window-x="0"
     inkscape:window-y="0"
     inkscape:window-maximized="1"
     inkscape:current-layer="svg2" />
  <path
     id="rect2"
     style="color:#000000;fill:#489db9;stroke-linecap:round;stroke-linejoin:round;stroke-miterlimit:2;-inkscape-stroke:none;fill-opacity:1"
     d="M 2.5429688,0 C 1.1444388,0 0,1.1444388 0,2.5429688 V 3 H 1.1347656 V 2.5429688 c 0,-0.7893574 0.6188458,-1.4082032 1.4082032,-1.4082032 H 3.0449219 V 0 Z M 13.044922,0 v 1.1347656 h 0.5 c 0.789356,0 1.408203,0.618846 1.408203,1.4082032 V 3 h 1.134766 V 2.5429688 C 16.087891,1.1444387 14.943451,0 13.544922,0 Z M 0,13 v 0.457031 C 0,14.855562 1.1444391,16 2.5429688,16 H 3.0449219 V 14.865234 H 2.5429688 c -0.7893576,0 -1.4082032,-0.618844 -1.4082032,-1.408203 V 13 Z m 14.953125,0 v 0.457031 c 0,0.789359 -0.618847,1.408203 -1.408203,1.408203 h -0.5 V 16 h 0.5 c 1.398528,0 2.542969,-1.144437 2.542969,-2.542969 V 13 Z M 6.4022939,4.2499998 5.5689606,5.0833331 H 3.8772941 c -0.3916667,0.05 -0.8333333,0.4499999 -0.8333333,0.8333332 v 4.9999997 c 0,0.383333 0.4416666,0.833333 0.8333333,0.833333 h 8.3333339 c 0.391666,0 0.833333,-0.45 0.833333,-0.833333 V 5.9166663 c 0,-0.3833333 -0.441667,-0.8333332 -0.833333,-0.8333332 H 10.568961 L 9.7356277,4.2499998 Z m 1.6416665,1.6666665 c 1.3833335,0 2.5000006,1.1166666 2.5000006,2.5000002 0,1.3749995 -1.1166671,2.4999995 -2.5000006,2.4999995 -1.3833332,0 -2.4999998,-1.125 -2.4999998,-2.4999995 0,-1.3833336 1.1166666,-2.5000002 2.4999998,-2.5000002 z m 0,0.8333333 c -0.9166666,0 -1.6666665,0.7416666 -1.6666665,1.6666669 0,0.9166665 0.7499999,1.6666665 1.6666665,1.6666665 0.9250002,0 1.6666673,-0.75 1.6666673,-1.6666665 0,-0.9250003 -0.7416671,-1.6666669 -1.6666673,-1.6666669 z" />
</svg>
