<?xml version="1.0" encoding="UTF-8" standalone="no"?>
<svg
   width="16"
   height="16"
   version="1.1"
   id="svg2"
   sodipodi:docname="nwg-screenshot.svg"
   inkscape:version="1.3 (0e150ed6c4, 2023-07-21)"
   xml:space="preserve"
   xmlns:inkscape="http://www.inkscape.org/namespaces/inkscape"
   xmlns:sodipodi="http://sodipodi.sourceforge.net/DTD/sodipodi-0.dtd"
   xmlns="http://www.w3.org/2000/svg"
   xmlns:svg="http://www.w3.org/2000/svg"><defs
     id="defs2" /><sodipodi:namedview
     id="namedview2"
     pagecolor="#ffffff"
     bordercolor="#666666"
     borderopacity="1.0"
     inkscape:showpageshadow="2"
     inkscape:pageopacity="0.0"
     inkscape:pagecheckerboard="0"
     inkscape:deskcolor="#d1d1d1"
     inkscape:zoom="14.75"
     inkscape:cx="7.9661017"
     inkscape:cy="8.0338983"
     inkscape:window-width="2552"
     inkscape:window-height="1372"
     inkscape:window-x="0"
     inkscape:window-y="0"
     inkscape:window-maximized="1"
     inkscape:current-layer="svg2"
     showgrid="false" /><circle
     style="fill:#347284;fill-opacity:1;stroke-width:0.4"
     cx="8"
     cy="8"
     r="8"
     id="circle2" /><path
     style="opacity:0.2;stroke-width:0.4"
     d="M 8,3.6 C 6.8832576,3.60132 5.8019192,3.9919624 4.9421876,4.7046876 L 6.6140624,7.6 8.875,3.6835936 C 8.586504,3.6290264 8.2936096,3.6010444 8,3.6 Z M 9.6710936,3.90625 8,6.8 h 4.519531 C 12.044876,5.46154 11.001896,4.4019692 9.6710936,3.90625 Z m -5.31875,1.3765624 C 3.6093012,6.1515092 3.2006776,7.25687 3.2,8.4 3.2002752,8.6680968 3.223012,8.9356996 3.2679688,9.2 H 6.6140624 Z M 9.3859376,7.6 11.647656,11.517188 C 12.390699,10.648491 12.799322,9.54313 12.8,8.4 12.799725,8.1319032 12.776988,7.8643004 12.732031,7.6 Z m 0,1.6 L 7.125,13.116406 C 7.413496,13.170974 7.7063904,13.198956 8,13.2 9.1167424,13.1987 10.198081,12.808038 11.057812,12.095312 Z M 3.4804688,10 c 0.4746556,1.33846 1.5176352,2.398031 2.8484376,2.89375 L 8,10 Z"
     id="path2" /><path
     style="fill:#ffffff;stroke-width:0.4"
     d="M 8,3.2 C 6.8832576,3.20132 5.8019192,3.5919624 4.9421876,4.3046876 L 6.6140624,7.2 8.875,3.2835936 C 8.586504,3.2290264 8.2936096,3.2010444 8,3.2 Z M 9.6710936,3.50625 8,6.4 h 4.519531 C 12.044876,5.06154 11.001896,4.0019692 9.6710936,3.50625 Z m -5.31875,1.3765624 C 3.6093012,5.7515092 3.2006776,6.85687 3.2,8 3.2002752,8.2680968 3.223012,8.5356996 3.2679688,8.8 H 6.6140624 Z M 9.3859376,7.2 11.647656,11.117188 C 12.390699,10.248491 12.799322,9.14313 12.8,8 12.799725,7.7319032 12.776988,7.4643004 12.732031,7.2 Z m 0,1.6 L 7.125,12.716406 C 7.413496,12.770974 7.7063904,12.798956 8,12.8 9.1167424,12.7987 10.198081,12.408038 11.057812,11.695312 Z M 3.4804688,9.6 c 0.4746556,1.33846 1.5176352,2.398031 2.8484376,2.89375 L 8,9.6 Z"
     id="path3" /></svg>
