<?xml version="1.0" encoding="UTF-8" standalone="no"?>
<svg
   width="16"
   height="16"
   version="1.1"
   id="svg2"
   sodipodi:docname="nwg-screenshot.svg"
   inkscape:version="1.3 (0e150ed6c4, 2023-07-21)"
   xml:space="preserve"
   xmlns:inkscape="http://www.inkscape.org/namespaces/inkscape"
   xmlns:sodipodi="http://sodipodi.sourceforge.net/DTD/sodipodi-0.dtd"
   xmlns="http://www.w3.org/2000/svg"
   xmlns:svg="http://www.w3.org/2000/svg"><defs
     id="defs2" /><sodipodi:namedview
     id="namedview2"
     pagecolor="#ffffff"
     bordercolor="#666666"
     borderopacity="1.0"
     inkscape:showpageshadow="2"
     inkscape:pageopacity="0.0"
     inkscape:pagecheckerboard="0"
     inkscape:deskcolor="#d1d1d1"
     inkscape:zoom="14.75"
     inkscape:cx="7.9661017"
     inkscape:cy="8.0338983"
     inkscape:window-width="2552"
     inkscape:window-height="1372"
     inkscape:window-x="0"
     inkscape:window-y="0"
     inkscape:window-maximized="1"
     inkscape:current-layer="svg2"
     showgrid="false" /><path
     id="path10"
     style="color:#000000;fill:#347284;fill-opacity:1;stroke-width:1.16667;stroke-linecap:round;stroke-linejoin:round;stroke-miterlimit:2;-inkscape-stroke:none"
     d="M 5.701666,3.0463457 4.5349995,4.2130124 H 2.1666665 C 1.6183332,4.2830124 1,4.8430122 1,5.379679 v 7 c 0,0.536666 0.6183332,1.166666 1.1666665,1.166666 H 13.833334 c 0.548332,0 1.166666,-0.63 1.166666,-1.166666 v -7 C 15,4.8430122 14.381666,4.2130124 13.833334,4.2130124 H 11.535001 L 10.368334,3.0463457 Z M 7.999999,5.379679 c 1.9366666,0 3.500002,1.5633333 3.500002,3.5000003 0,1.9249997 -1.5633354,3.4999997 -3.500002,3.4999997 -1.9366664,0 -3.4999995,-1.575 -3.4999995,-3.4999997 0,-1.936667 1.5633331,-3.5000003 3.4999995,-3.5000003 z m 0,1.1666667 c -1.2833332,0 -2.333333,1.0383332 -2.333333,2.3333336 0,1.2833337 1.0499998,2.3333337 2.333333,2.3333337 1.2949996,0 2.333335,-1.05 2.333335,-2.3333337 0,-1.2950004 -1.0383354,-2.3333336 -2.333335,-2.3333336 z" /></svg>
