<?xml version="1.0" encoding="UTF-8" standalone="no"?>
<svg
   width="24"
   height="24"
   version="1.1"
   id="svg68"
   sodipodi:docname="nwg-update-noupdate.svg"
   inkscape:version="1.2.2 (b0a8486541, 2022-12-01)"
   xml:space="preserve"
   xmlns:inkscape="http://www.inkscape.org/namespaces/inkscape"
   xmlns:sodipodi="http://sodipodi.sourceforge.net/DTD/sodipodi-0.dtd"
   xmlns="http://www.w3.org/2000/svg"
   xmlns:svg="http://www.w3.org/2000/svg"><sodipodi:namedview
     id="namedview70"
     pagecolor="#ffffff"
     bordercolor="#000000"
     borderopacity="0.25"
     inkscape:showpageshadow="2"
     inkscape:pageopacity="0.0"
     inkscape:pagecheckerboard="0"
     inkscape:deskcolor="#d1d1d1"
     showgrid="false"
     inkscape:zoom="16"
     inkscape:cx="13.84375"
     inkscape:cy="12.625"
     inkscape:window-width="1065"
     inkscape:window-height="1051"
     inkscape:window-x="0"
     inkscape:window-y="0"
     inkscape:window-maximized="1"
     inkscape:current-layer="svg68"
     showguides="true"><sodipodi:guide
       position="12,24.795495"
       orientation="-1,0"
       id="guide10395"
       inkscape:locked="false"
       inkscape:label=""
       inkscape:color="rgb(0,134,229)" /><sodipodi:guide
       position="2.5,27.844893"
       orientation="-1,0"
       id="guide11849"
       inkscape:locked="false"
       inkscape:label=""
       inkscape:color="rgb(0,134,229)" /><sodipodi:guide
       position="21.5,29.789437"
       orientation="-1,0"
       id="guide12577"
       inkscape:locked="false"
       inkscape:label=""
       inkscape:color="rgb(0,134,229)" /><sodipodi:guide
       position="29.168155,1"
       orientation="0,1"
       id="guide15485"
       inkscape:locked="false"
       inkscape:label=""
       inkscape:color="rgb(0,134,229)" /><sodipodi:guide
       position="18.119611,21.56932"
       orientation="0,-1"
       id="guide17671"
       inkscape:locked="false" /></sodipodi:namedview><defs
     id="defs62"><style
       id="current-color-scheme"
       type="text/css">
   .ColorScheme-Text { color:#dfdfdf; } .ColorScheme-Highlight { color:#4285f4; } .ColorScheme-NeutralText { color:#ff9800; } .ColorScheme-PositiveText { color:#4caf50; } .ColorScheme-NegativeText { color:#f44336; }
  </style></defs><path
     style="color:#000000;fill:#444444;stroke:none;stroke-width:1.8;-inkscape-stroke:none"
     d="m 19.600594,3.8532122 3.2e-5,5.538e-4 c 0.0016,0.00403 0.0016,0.02672 -3.2e-5,-5.538e-4 z"
     id="path17669" /><path
     style="color:#000000;fill:#eeeeee;stroke:none;stroke-width:1.63604;-inkscape-stroke:none"
     d="m 3.3554948,3.2975862 c 0,0 5.7359859,-1.3047215 8.6523422,-1.2975562 2.913297,0.00716 8.636793,1.3386657 8.636793,1.3386657 0,0 -0.03598,16.7326283 -8.636369,18.6613053 C 3.2191352,20.066113 3.3554948,3.2975862 3.3554948,3.2975862 Z"
     id="path21415" /><path
     style="color:#000000;fill:#444444;stroke:none;stroke-width:1.82857;-inkscape-stroke:none"
     d="M 12.009416,23 11.829127,22.96033 C 9.3503981,22.41492 7.4987724,20.806246 6.1750231,18.810602 4.8512738,16.814957 4.0115006,14.418171 3.4564311,12.106253 2.3462918,7.4824157 2.3866859,3.142457 2.3866859,3.142457 l 0.00534,-0.6576817 0.6413129,-0.145875 c 0,0 5.7628229,-1.34675934 8.9759672,-1.3388657 3.210038,0.00789 8.960068,1.3815421 8.960068,1.3815421 L 21.6135,2.5314283 21.6121,3.192766 c 0,0 -0.0045,4.3290255 -1.134254,8.940114 -0.564902,2.305543 -1.408192,4.694924 -2.719608,6.684472 -1.311417,1.989548 -3.134257,3.596313 -5.568683,4.142255 z m -0.0036,-1.705204 c 1.844881,-0.469453 3.248116,-1.698098 4.364758,-3.392154 1.152669,-1.748712 1.956673,-3.976324 2.493014,-6.165299 0.816089,-3.3307278 1.018886,-6.5357236 1.06941,-7.8810601 C 18.327895,3.5126207 14.164248,2.6673686 12.00523,2.6620595 9.8420324,2.6567495 5.6647834,3.4837537 4.0591251,3.8193687 c 0.037527,1.3445435 0.2114165,4.5586259 1.0133766,7.8988673 0.5263694,2.192379 1.3260771,4.422692 2.4875116,6.173635 1.1259702,1.697478 2.5506857,2.931088 4.4458027,3.402925 z"
     id="path21417" /><path
     style="fill:#444444;fill-opacity:1;fill-rule:evenodd"
     d="m 15.00005,7.6892656 1.414,1.4141 -5.414,5.5859004 -3.4140999,-3.5859 1.4141,-1.4141006 1.9999999,2.1720006 z"
     id="path64" /></svg>
