<?xml version="1.0" encoding="UTF-8" standalone="no"?>
<svg
   width="16"
   height="16"
   version="1.1"
   id="svg2"
   sodipodi:docname="nwg-screenshot.svg"
   inkscape:version="1.3 (0e150ed6c4, 2023-07-21)"
   xmlns:inkscape="http://www.inkscape.org/namespaces/inkscape"
   xmlns:sodipodi="http://sodipodi.sourceforge.net/DTD/sodipodi-0.dtd"
   xmlns="http://www.w3.org/2000/svg"
   xmlns:svg="http://www.w3.org/2000/svg">
  <defs
     id="defs2" />
  <sodipodi:namedview
     id="namedview2"
     pagecolor="#ffffff"
     bordercolor="#666666"
     borderopacity="1.0"
     inkscape:showpageshadow="2"
     inkscape:pageopacity="0.0"
     inkscape:pagecheckerboard="0"
     inkscape:deskcolor="#d1d1d1"
     inkscape:zoom="14.75"
     inkscape:cx="7.9661017"
     inkscape:cy="8.0338983"
     inkscape:window-width="2552"
     inkscape:window-height="1372"
     inkscape:window-x="0"
     inkscape:window-y="0"
     inkscape:window-maximized="1"
     inkscape:current-layer="svg2"
     showgrid="false" />
  <path
     id="rect6"
     style="color:#000000;fill:#397d94;stroke-linecap:round;stroke-linejoin:round;stroke-miterlimit:2;-inkscape-stroke:none;fill-opacity:1"
     d="M 2.421875,0 C 1.092446,0 0,1.092446 0,2.421875 V 2.7792969 H 1.4765625 V 2.421875 c 0,-0.5368171 0.4084954,-0.9453125 0.9453125,-0.9453125 H 2.7792969 V 0 Z m 10.798828,0 v 1.4765625 h 0.357422 c 0.536817,0 0.945312,0.4084953 0.945313,0.9453125 V 2.7792969 H 16 V 2.421875 C 16,1.0924461 14.907554,0 13.578125,0 Z M 0,13.220703 v 0.357422 C 0,14.907554 1.0924461,16 2.421875,16 H 2.7792969 V 14.523438 H 2.421875 c -0.5368172,0 -0.9453125,-0.408496 -0.9453125,-0.945313 v -0.357422 z m 14.523438,0 v 0.357422 c 0,0.536817 -0.408496,0.945312 -0.945313,0.945313 H 13.220703 V 16 h 0.357422 C 14.907554,16 16,14.907554 16,13.578125 V 13.220703 Z M 6.073945,3.5000004 5.0739451,4.5000003 H 3.0439453 c -0.47,0.06 -0.9999999,0.5399999 -0.9999999,0.9999999 V 11.5 c 0,0.46 0.5299999,1 0.9999999,1 H 13.043946 c 0.469999,0 1,-0.54 1,-1 V 5.5000002 c 0,-0.46 -0.530001,-0.9999999 -1,-0.9999999 h -1.97 l -1,-0.9999999 z m 1.9699998,1.9999998 c 1.6599998,0 3.0000012,1.3399999 3.0000012,3.0000001 C 11.043946,10.15 9.7039446,11.5 8.0439448,11.5 6.383945,11.5 5.0439451,10.15 5.0439451,8.5000003 c 0,-1.6600002 1.3399999,-3.0000001 2.9999997,-3.0000001 z m 0,0.9999999 c -1.0999999,0 -1.9999998,0.8899999 -1.9999998,2.0000002 0,1.1000003 0.8999999,2.0000007 1.9999998,2.0000007 1.1099998,0 2.0000012,-0.9000004 2.0000012,-2.0000007 0,-1.1100003 -0.8900014,-2.0000002 -2.0000012,-2.0000002 z" />
</svg>
