<?xml version="1.0" encoding="UTF-8" standalone="no"?>
<svg
   width="16"
   height="16"
   version="1.1"
   id="svg2"
   sodipodi:docname="nwg-3.svg"
   inkscape:version="1.3 (0e150ed6c4, 2023-07-21)"
   xml:space="preserve"
   xmlns:inkscape="http://www.inkscape.org/namespaces/inkscape"
   xmlns:sodipodi="http://sodipodi.sourceforge.net/DTD/sodipodi-0.dtd"
   xmlns="http://www.w3.org/2000/svg"
   xmlns:svg="http://www.w3.org/2000/svg"><defs
     id="defs2" /><sodipodi:namedview
     id="namedview2"
     pagecolor="#ffffff"
     bordercolor="#666666"
     borderopacity="1.0"
     inkscape:showpageshadow="2"
     inkscape:pageopacity="0.0"
     inkscape:pagecheckerboard="0"
     inkscape:deskcolor="#d1d1d1"
     inkscape:zoom="14.75"
     inkscape:cx="7.9661017"
     inkscape:cy="8"
     inkscape:window-width="1912"
     inkscape:window-height="1016"
     inkscape:window-x="0"
     inkscape:window-y="0"
     inkscape:window-maximized="1"
     inkscape:current-layer="svg2"
     showgrid="false" /><circle
     style="fill:#347284;fill-opacity:1;stroke-width:0.4"
     cx="8"
     cy="8"
     r="8"
     id="circle2" /><path
     style="font-size:12.6667px;font-family:Cantarell;-inkscape-font-specification:Cantarell;fill:#ffffff"
     d="m 7.7783327,12.522012 c 1.9253385,0 3.2553423,-1.013336 3.2553423,-2.5333403 0,-1.2920035 -0.988003,-2.1913392 -2.4826736,-2.2293393 L 8.3610009,7.9113328 c 1.3173368,-0.038 2.2166721,-0.9246691 2.2166721,-2.1406724 0,-1.393337 -1.1273359,-2.2926727 -2.7613402,-2.2926727 -0.9120024,0 -1.9253385,0.2913341 -2.6726738,0.7220019 L 5.3843263,4.985325 C 6.1696617,4.5926573 6.9929973,4.3899901 7.638999,4.3899901 c 1.1273363,0 1.9506718,0.5826682 1.9506718,1.4820039 0,0.9626693 -0.9373358,1.608671 -2.2293392,1.608671 H 6.6763298 v 0.8993357 h 0.9120024 c 1.4693372,0 2.3940064,0.633335 2.3940064,1.6720043 0,0.988003 -0.8613357,1.532671 -2.1660058,1.532671 -0.7726687,0 -1.7986715,-0.190001 -2.622007,-0.595335 L 4.9663252,11.83801 c 0.8486689,0.430668 1.8873384,0.684002 2.8120075,0.684002 z"
     id="text2"
     aria-label="3" /></svg>
