<?xml version="1.0" encoding="UTF-8" standalone="no"?>
<svg
   width="24"
   height="24"
   version="1.1"
   id="svg1834"
   sodipodi:docname="nwg-update-checking.svg"
   inkscape:version="1.2.2 (b0a8486541, 2022-12-01)"
   xmlns:inkscape="http://www.inkscape.org/namespaces/inkscape"
   xmlns:sodipodi="http://sodipodi.sourceforge.net/DTD/sodipodi-0.dtd"
   xmlns="http://www.w3.org/2000/svg"
   xmlns:svg="http://www.w3.org/2000/svg">
  <sodipodi:namedview
     id="namedview1836"
     pagecolor="#ffffff"
     bordercolor="#000000"
     borderopacity="0.25"
     inkscape:showpageshadow="2"
     inkscape:pageopacity="0.0"
     inkscape:pagecheckerboard="0"
     inkscape:deskcolor="#d1d1d1"
     showgrid="false"
     inkscape:zoom="16"
     inkscape:cx="12.71875"
     inkscape:cy="12.625"
     inkscape:window-width="841"
     inkscape:window-height="1051"
     inkscape:window-x="0"
     inkscape:window-y="0"
     inkscape:window-maximized="1"
     inkscape:current-layer="svg1834" />
  <defs
     id="defs1828">
    <style
       id="current-color-scheme"
       type="text/css">
   .ColorScheme-Text { color:#dfdfdf; } .ColorScheme-Highlight { color:#4285f4; } .ColorScheme-NeutralText { color:#ff9800; } .ColorScheme-PositiveText { color:#4caf50; } .ColorScheme-NegativeText { color:#f44336; }
  </style>
  </defs>
  <path
     style="color:#000000;fill:#eeeeee;stroke:none;stroke-width:1.63604;-inkscape-stroke:none"
     d="m 3.3563443,3.2965856 c 0,0 5.7359857,-1.3047215 8.6523417,-1.2975562 2.913297,0.00716 8.636793,1.3386657 8.636793,1.3386657 0,0 -0.03598,16.7326279 -8.636369,18.6613049 C 3.2199843,20.065112 3.3563443,3.2965856 3.3563443,3.2965856 Z"
     id="path21415" />
  <path
     id="path1863"
     style="fill:#444444;fill-opacity:1;fill-rule:evenodd"
     d="m 12.145,6.9525898 v 0.002 h 0.001 c 1.309,0.048 2.501,0.7374 3.204,1.8184 l 1.388,-0.4629 -1.57,3.1465002 -3.147,-1.5743002 1.278,-0.4257 c -0.338,-0.294 -0.763,-0.487 -1.229,-0.504 -0.742,-0.027 -1.4343,0.3551 -1.8063,0.9981 l -1.7325,-1 c 0.7401,-1.282 2.1343,-2.0531 3.6138,-1.9981 z m -3.313,3.5000002 3.147,1.574 -1.2778,0.426 c 0.3378,0.294 0.7628,0.485 1.2288,0.502 0.742,0.027 1.434,-0.355 1.806,-0.998 l 1.733,1 c -0.74,1.282 -2.135,2.053 -3.614,1.998 -1.3085,-0.048 -2.4997,-0.737 -3.2027,-1.818 l -1.3886,0.463 z" />
  <path
     style="color:#000000;fill:#444444;stroke:none;stroke-width:1.82857;-inkscape-stroke:none"
     d="M 12.010266,22.999 11.829977,22.95933 C 9.351248,22.41392 7.4996223,20.805246 6.175873,18.809602 4.8521239,16.813957 4.0123509,14.417171 3.4572809,12.105253 2.3471419,7.4814158 2.3875359,3.1414571 2.3875359,3.1414571 l 0.0053,-0.6576817 0.641313,-0.145875 c 0,0 5.7628227,-1.34675925 8.9759671,-1.33886565 3.210038,0.00789 8.960068,1.38154205 8.960068,1.38154205 l 0.644166,0.1498516 -0.0014,0.6613377 c 0,0 -0.0045,4.3290255 -1.134254,8.9401139 -0.564902,2.305543 -1.408192,4.694924 -2.719608,6.684472 -1.311417,1.989548 -3.134257,3.596313 -5.568683,4.142255 z m -0.0036,-1.705204 c 1.844881,-0.469453 3.248116,-1.698098 4.364758,-3.392154 1.152669,-1.748712 1.956673,-3.976324 2.493014,-6.165299 0.816089,-3.3307279 1.018886,-6.5357235 1.06941,-7.88106 C 18.328745,3.5116208 14.165098,2.6663687 12.00608,2.6610596 9.8428823,2.6557496 5.6656333,3.4827538 4.0599749,3.8183688 c 0.03753,1.3445435 0.211417,4.5586263 1.013377,7.8988672 0.5263691,2.192379 1.3260768,4.422692 2.4875113,6.173635 1.1259702,1.697478 2.5506858,2.931088 4.4458028,3.402925 z"
     id="path21417" />
</svg>
