<?xml version="1.0" encoding="UTF-8" standalone="no"?>
<!-- Created with Inkscape (http://www.inkscape.org/) -->

<svg
   width="24"
   height="24"
   viewBox="0 0 6.35 6.35"
   version="1.1"
   id="svg5"
   xml:space="preserve"
   inkscape:version="1.2.2 (b0a8486541, 2022-12-01)"
   sodipodi:docname="nwg-update-checking.svg"
   xmlns:inkscape="http://www.inkscape.org/namespaces/inkscape"
   xmlns:sodipodi="http://sodipodi.sourceforge.net/DTD/sodipodi-0.dtd"
   xmlns="http://www.w3.org/2000/svg"
   xmlns:svg="http://www.w3.org/2000/svg"><sodipodi:namedview
     id="namedview7"
     pagecolor="#ffffff"
     bordercolor="#000000"
     borderopacity="0.25"
     inkscape:showpageshadow="2"
     inkscape:pageopacity="0.0"
     inkscape:pagecheckerboard="0"
     inkscape:deskcolor="#d1d1d1"
     inkscape:document-units="mm"
     showgrid="false"
     inkscape:zoom="8.1686733"
     inkscape:cx="-10.03835"
     inkscape:cy="15.914457"
     inkscape:window-width="1918"
     inkscape:window-height="1059"
     inkscape:window-x="0"
     inkscape:window-y="0"
     inkscape:window-maximized="1"
     inkscape:current-layer="layer1" /><defs
     id="defs2"><style
       id="current-color-scheme"
       type="text/css">
   .ColorScheme-Text { color:#dfdfdf; } .ColorScheme-Highlight { color:#4285f4; } .ColorScheme-NeutralText { color:#ff9800; } .ColorScheme-PositiveText { color:#4caf50; } .ColorScheme-NegativeText { color:#f44336; }
  </style><style
       id="current-color-scheme-6"
       type="text/css">
   .ColorScheme-Text { color:#dfdfdf; } .ColorScheme-Highlight { color:#4285f4; } .ColorScheme-NeutralText { color:#ff9800; } .ColorScheme-PositiveText { color:#4caf50; } .ColorScheme-NegativeText { color:#f44336; }
  </style><style
       id="current-color-scheme-5"
       type="text/css">
   .ColorScheme-Text { color:#dfdfdf; } .ColorScheme-Highlight { color:#4285f4; } .ColorScheme-NeutralText { color:#ff9800; } .ColorScheme-PositiveText { color:#4caf50; } .ColorScheme-NegativeText { color:#f44336; }
  </style><style
       id="current-color-scheme-6-3"
       type="text/css">
   .ColorScheme-Text { color:#dfdfdf; } .ColorScheme-Highlight { color:#4285f4; } .ColorScheme-NeutralText { color:#ff9800; } .ColorScheme-PositiveText { color:#4caf50; } .ColorScheme-NegativeText { color:#f44336; }
  </style><style
       id="current-color-scheme-1"
       type="text/css">
   .ColorScheme-Text { color:#dfdfdf; } .ColorScheme-Highlight { color:#4285f4; } .ColorScheme-NeutralText { color:#ff9800; } .ColorScheme-PositiveText { color:#4caf50; } .ColorScheme-NegativeText { color:#f44336; }
  </style><style
       id="current-color-scheme-6-2"
       type="text/css">
   .ColorScheme-Text { color:#dfdfdf; } .ColorScheme-Highlight { color:#4285f4; } .ColorScheme-NeutralText { color:#ff9800; } .ColorScheme-PositiveText { color:#4caf50; } .ColorScheme-NegativeText { color:#f44336; }
  </style><style
       id="current-color-scheme-0"
       type="text/css">
   .ColorScheme-Text { color:#dfdfdf; } .ColorScheme-Highlight { color:#4285f4; } .ColorScheme-NeutralText { color:#ff9800; } .ColorScheme-PositiveText { color:#4caf50; } .ColorScheme-NegativeText { color:#f44336; }
  </style></defs><g
     inkscape:label="Warstwa 1"
     inkscape:groupmode="layer"
     id="layer1"><circle
       style="fill:#347284;fill-opacity:1;stroke:none;stroke-width:0.416825"
       id="path13647-7"
       cx="3.175"
       cy="3.175"
       r="2.9104166" /><path
       id="path16226"
       style="color:#000000;fill:#f9f9f9;-inkscape-stroke:none"
       d="M 3.175 1.5218709 C 2.8694756 1.5218709 2.5641368 1.6061534 2.2965007 1.7745687 L 2.7342 2.2882324 C 3.1050233 2.1026369 3.5663779 2.162846 3.8762492 2.4727173 C 4.053371 2.6498351 4.124629 2.8818653 4.139799 3.113505 C 4.0562021 3.118195 3.9807576 3.1535206 3.9387777 3.2132406 C 3.8940177 3.2769085 3.8884477 3.3676934 3.9387777 3.4395833 L 4.1103434 3.6855632 L 4.284493 3.9299927 C 4.335073 4.0014976 4.41737 4.0333455 4.4973999 4.0333455 C 4.5774248 4.0333455 4.6617939 4.0014926 4.7123739 3.9299927 L 4.8839396 3.6855632 L 5.0560221 3.4395833 C 5.0984121 3.3791624 5.1025421 3.3029293 5.0735921 3.2421794 C 5.0446392 3.1814294 4.9868051 3.1363691 4.9133952 3.1176392 C 4.8904252 3.1118392 4.8669152 3.1078336 4.8431152 3.1078206 L 4.8002238 3.1078206 C 4.7829138 2.709076 4.6492221 2.3103458 4.3449544 2.0060791 C 4.0223487 1.6834734 3.5981106 1.5218709 3.175 1.5218709 z M 1.8644857 2.3145874 C 1.7747498 2.3105764 1.6880361 2.3466303 1.6376261 2.4179403 L 1.4660604 2.6644368 L 1.2939779 2.9083496 C 1.2515879 2.9687705 1.2474579 3.0450036 1.2764079 3.1057536 C 1.3053628 3.1664965 1.3631949 3.2141476 1.4366048 3.2328776 C 1.4595748 3.2386776 1.4830848 3.2406151 1.5068848 3.2406291 L 1.5482259 3.2406291 C 1.5655039 3.6394227 1.7007409 4.0396162 2.0050456 4.3439209 C 2.3276513 4.6665266 2.7518904 4.8281291 3.175 4.8281291 C 3.4801973 4.8281291 3.7850805 4.7428328 4.0524658 4.5743978 L 3.6142497 4.060734 C 3.2437103 4.2453231 2.7831613 4.1846261 2.4737508 3.8752157 C 2.296616 3.6980938 2.2232939 3.4660917 2.208134 3.2344279 C 2.2924989 3.2301979 2.3668753 3.1968994 2.4091553 3.1367594 C 2.4539552 3.0730915 2.4615523 2.9802395 2.4112223 2.9083496 L 2.2375895 2.6644368 L 2.065507 2.4179403 C 2.020297 2.3539753 1.9449556 2.3181874 1.8644857 2.3145874 z " /></g></svg>
