<?xml version="1.0" encoding="UTF-8" standalone="no"?>
<svg
   width="24"
   height="24"
   version="1.1"
   id="svg299"
   sodipodi:docname="nwg-update-available.svg"
   inkscape:version="1.2.2 (b0a8486541, 2022-12-01)"
   xmlns:inkscape="http://www.inkscape.org/namespaces/inkscape"
   xmlns:sodipodi="http://sodipodi.sourceforge.net/DTD/sodipodi-0.dtd"
   xmlns="http://www.w3.org/2000/svg"
   xmlns:svg="http://www.w3.org/2000/svg">
  <sodipodi:namedview
     id="namedview301"
     pagecolor="#ffffff"
     bordercolor="#666666"
     borderopacity="1.0"
     inkscape:showpageshadow="2"
     inkscape:pageopacity="0.0"
     inkscape:pagecheckerboard="0"
     inkscape:deskcolor="#d1d1d1"
     showgrid="false"
     inkscape:zoom="9.8333333"
     inkscape:cx="9.5084746"
     inkscape:cy="12"
     inkscape:window-width="1918"
     inkscape:window-height="1018"
     inkscape:window-x="0"
     inkscape:window-y="0"
     inkscape:window-maximized="1"
     inkscape:current-layer="svg299" />
  <defs
     id="defs293">
    <style
       id="current-color-scheme"
       type="text/css">
   .ColorScheme-Text { color:#dfdfdf; } .ColorScheme-Highlight { color:#4285f4; } .ColorScheme-NeutralText { color:#ff9800; } .ColorScheme-PositiveText { color:#4caf50; } .ColorScheme-NegativeText { color:#f44336; }
  </style>
  </defs>
  <path
     id="path295"
     style="fill:#dfdfdf;fill-rule:evenodd;stroke-width:1.25;fill-opacity:1"
     d="M 12.25 2 C 9.5648777 4.4622475 5.0432485 6.6311254 3.5 7 C 3.5 13.666243 6.7812555 20.888751 12.25 22 C 17.718745 20.888751 21 13.666243 21 7 C 19.456252 6.6311254 14.934997 4.4622475 12.25 2 z M 12.085938 6.9960938 C 12.200517 6.9924194 12.316055 6.99375 12.431641 6.9980469 L 12.431641 7 C 14.067889 7.0599999 15.558751 7.9221889 16.4375 9.2734375 L 18.171875 8.6953125 L 16.210938 12.626953 L 12.275391 10.660156 L 13.873047 10.126953 C 13.450547 9.7594535 12.92039 9.5192969 12.337891 9.4980469 C 11.410392 9.4642969 10.545078 9.9423446 10.080078 10.746094 L 7.9140625 9.4960938 C 8.7813663 7.9937515 10.367249 7.0512084 12.085938 6.9960938 z M 8.2890625 11.373047 L 12.224609 13.339844 L 10.626953 13.873047 C 11.049203 14.240547 11.57961 14.47875 12.162109 14.5 C 13.089608 14.53375 13.954922 14.055702 14.419922 13.251953 L 16.585938 14.501953 C 15.660938 16.104452 13.917108 17.06875 12.068359 17 C 10.432736 16.94 8.9432022 16.077811 8.0644531 14.726562 L 6.3300781 15.306641 L 8.2890625 11.373047 z " />
  <circle
     style="fill:#ff8000;fill-opacity:1;stroke-width:0.98608;stroke-linejoin:round;stroke-miterlimit:2"
     id="path8115"
     cx="19.25"
     cy="20.25"
     r="1.75" />
</svg>
