<?xml version="1.0" encoding="UTF-8" standalone="no"?>
<svg
   width="24"
   height="24"
   version="1.1"
   id="svg299"
   sodipodi:docname="nwg-update-available.svg"
   inkscape:version="1.2.2 (b0a8486541, 2022-12-01)"
   xmlns:inkscape="http://www.inkscape.org/namespaces/inkscape"
   xmlns:sodipodi="http://sodipodi.sourceforge.net/DTD/sodipodi-0.dtd"
   xmlns="http://www.w3.org/2000/svg"
   xmlns:svg="http://www.w3.org/2000/svg">
  <sodipodi:namedview
     id="namedview301"
     pagecolor="#ffffff"
     bordercolor="#666666"
     borderopacity="1.0"
     inkscape:showpageshadow="2"
     inkscape:pageopacity="0.0"
     inkscape:pagecheckerboard="0"
     inkscape:deskcolor="#d1d1d1"
     showgrid="false"
     inkscape:zoom="13.906433"
     inkscape:cx="8.4133724"
     inkscape:cy="12.008831"
     inkscape:window-width="1918"
     inkscape:window-height="1018"
     inkscape:window-x="0"
     inkscape:window-y="0"
     inkscape:window-maximized="1"
     inkscape:current-layer="svg299" />
  <defs
     id="defs293">
    <style
       id="current-color-scheme"
       type="text/css">
   .ColorScheme-Text { color:#dfdfdf; } .ColorScheme-Highlight { color:#4285f4; } .ColorScheme-NeutralText { color:#ff9800; } .ColorScheme-PositiveText { color:#4caf50; } .ColorScheme-NegativeText { color:#f44336; }
  </style>
  </defs>
  <path
     id="path295"
     style="fill:#8c8c8c;fill-rule:evenodd;stroke-width:1.25;fill-opacity:1"
     d="M 12.25 2 C 9.5648804 4.462245 5.043247 6.6311258 3.5 7 C 3.5 13.666236 6.781261 20.888752 12.25 22 C 13.00149 21.847297 13.710914 21.57909 14.376953 21.212891 A 4.8549309 4.8549309 0 0 1 14.226562 20.082031 A 4.8549309 4.8549309 0 0 1 19.082031 15.226562 A 4.8549309 4.8549309 0 0 1 19.326172 15.234375 C 20.412915 12.723957 21 9.8135078 21 7 C 19.456254 6.6311258 14.934994 4.462245 12.25 2 z M 12.085938 6.9960938 C 12.200516 6.9924194 12.316055 6.99375 12.431641 6.9980469 L 12.431641 7 C 14.067887 7.0599998 15.558752 7.9221903 16.4375 9.2734375 L 18.171875 8.6953125 L 16.210938 12.626953 L 12.275391 10.660156 L 13.873047 10.126953 C 13.450547 9.759454 12.920389 9.5192969 12.337891 9.4980469 C 11.410393 9.4642969 10.545078 9.9423452 10.080078 10.746094 L 7.9140625 9.4960938 C 8.7813654 7.993753 10.36725 7.0512083 12.085938 6.9960938 z M 8.2890625 11.373047 L 12.224609 13.339844 L 10.626953 13.873047 C 11.049203 14.240547 11.579611 14.47875 12.162109 14.5 C 13.089607 14.53375 13.954922 14.055701 14.419922 13.251953 L 16.585938 14.501953 C 15.660938 16.104451 13.917107 17.06875 12.068359 17 C 10.432738 16.94 8.9432013 16.07781 8.0644531 14.726562 L 6.3300781 15.306641 L 8.2890625 11.373047 z " />
  <circle
     style="fill:#ff8000;fill-opacity:1;stroke-width:2.14795;stroke-linejoin:round;stroke-miterlimit:2"
     id="path8115"
     cx="19.081171"
     cy="20.081171"
     r="3.8119695" />
</svg>
