<?xml version="1.0" encoding="UTF-8" standalone="no"?>
<svg
   width="48"
   height="48"
   version="1.1"
   id="svg220"
   sodipodi:docname="nwg-shell-translate.svg"
   xml:space="preserve"
   inkscape:version="1.2.2 (b0a8486541, 2022-12-01)"
   xmlns:inkscape="http://www.inkscape.org/namespaces/inkscape"
   xmlns:sodipodi="http://sodipodi.sourceforge.net/DTD/sodipodi-0.dtd"
   xmlns="http://www.w3.org/2000/svg"
   xmlns:svg="http://www.w3.org/2000/svg"><defs
     id="defs224" /><sodipodi:namedview
     id="namedview222"
     pagecolor="#ffffff"
     bordercolor="#666666"
     borderopacity="1.0"
     inkscape:showpageshadow="2"
     inkscape:pageopacity="0.0"
     inkscape:pagecheckerboard="0"
     inkscape:deskcolor="#d1d1d1"
     showgrid="false"
     inkscape:zoom="6.4160277"
     inkscape:cx="55.797764"
     inkscape:cy="26.496145"
     inkscape:window-width="1918"
     inkscape:window-height="1018"
     inkscape:window-x="0"
     inkscape:window-y="0"
     inkscape:window-maximized="1"
     inkscape:current-layer="svg220" /><path
     style="opacity:0.2"
     d="M 15.365234,13 27.009766,31.128906 26.492188,37 h -3.164063 l 2.460937,8 H 41.339844 C 42.802623,45 44,43.820743 44,42.376953 V 15.623047 C 44,14.179257 42.802623,13 41.339844,13 Z"
     id="path195" /><path
     style="fill:#e4e4e4"
     d="m 41.338942,44.000002 c 1.462779,0 2.661056,-1.179095 2.661056,-2.622885 v -26.75423 c 0,-1.44379 -1.198277,-2.622885 -2.661056,-2.622885 H 15.365596 L 27.010591,30.127955 25.7894,44.000002 Z"
     id="path197" /><path
     style="fill:#ffffff;opacity:0.2"
     d="M 15.365234 12 L 16.007812 13 L 41.339844 13 C 42.802623 13 44 14.179257 44 15.623047 L 44 14.623047 C 44 13.179257 42.802623 12 41.339844 12 L 15.365234 12 z M 26.931641 31.007812 L 25.789062 44 L 25.876953 44 L 27.009766 31.128906 L 26.931641 31.007812 z"
     id="path199" /><path
     style="opacity:0.1"
     d="m 31,20 v 2 h -4.8125 v 2.001953 H 27 V 24 h 6 v 0.002 h 2.78125 c -0.512975,1.780849 -1.647804,3.499632 -2.753906,4.806641 C 31.639455,27.189437 31.237703,26.355148 31.117188,26 h -2.039063 c 0.149838,0.457692 0.709026,1.677666 2.779297,4.068359 -0.893698,0.900296 -1.570313,1.433594 -1.570313,1.433594 l 0.625,1.927735 c 0,0 0.944708,-0.801178 2.126953,-2.03711 1.186254,1.267521 2.717504,2.791036 4.697266,4.607422 l 1.28711,-1.267578 C 36.90341,32.837062 35.349201,31.333293 34.207031,30.125 c 1.530908,-1.784797 3.085439,-4.069697 3.414063,-6.126953 h 3.376956 v 0.0039 h 0.0039 V 22 H 33 v -2 z"
     id="path201" /><path
     id="polygon6"
     style="fill:#2b5f6d;fill-opacity:1"
     transform="matrix(0.04007614,0,0,0.04244032,4.0000023,1.6318323)"
     d="M 714.49999,809.79992 482.3,809.8 543.70001,998.29996 Z" /><path
     style="fill:#5a717f"
     d="m 31,19 v 2 h -4.8125 v 2.001953 H 27 V 23 h 6 v 0.002 h 2.78125 c -0.512975,1.780849 -1.647804,3.499632 -2.753906,4.806641 C 31.639455,26.189437 31.237703,25.355148 31.117188,25 h -2.039063 c 0.149838,0.457692 0.709026,1.677666 2.779297,4.068359 -0.893698,0.900296 -1.570313,1.433594 -1.570313,1.433594 l 0.625,1.927735 c 0,0 0.944708,-0.801178 2.126953,-2.03711 1.186254,1.267521 2.717504,2.791036 4.697266,4.607422 l 1.28711,-1.267578 C 36.90341,31.837062 35.349201,30.333293 34.207031,29.125 c 1.530908,-1.784797 3.085439,-4.069697 3.414063,-6.126953 h 3.376953 v 0.0039 h 0.0039 V 21 H 33 v -2 z"
     id="path204" /><path
     style="opacity:0.2"
     d="M 6.661058,5 C 5.1982789,5 4.0000023,6.1813804 4.0000023,7.6274849 V 34.376466 C 4.0000023,35.818619 5.1982789,37 6.661058,37 H 32.634404 L 22.2106,5 Z"
     id="path206" /><path
     fill="#4285f4"
     d="M 6.661058,4 C 5.1982789,4 4.0000023,5.1813804 4.0000023,6.6274849 V 33.376466 C 4.0000023,34.818619 5.1982789,36 6.661058,36 H 32.634404 L 22.2106,4 Z"
     id="path208"
     style="fill:#347284;fill-opacity:1" /><path
     style="fill:#ffffff;opacity:0.2"
     d="M 6.6601562 4 C 5.1973772 4 4 5.1808486 4 6.6269531 L 4 7.6269531 C 4 6.1808486 5.1973772 5 6.6601562 5 L 22.210938 5 L 32.308594 36 L 32.634766 36 L 22.210938 4 L 6.6601562 4 z"
     id="path210" /><g
     id="g5775"
     transform="translate(11.071908,0.08345783)"><g
       aria-label="N"
       id="text2306"
       style="font-size:16.8598px;line-height:1.25;fill:#2a5b6a;fill-opacity:1;stroke-width:0.351245"
       transform="translate(0.13888082,1.050789)"><path
         d="M -0.08321559,26.849482 V 14.811584 H 3.2381651 l 3.1696424,9.694385 h 0.050579 q -0.067439,-1.180186 -0.1011588,-2.174914 -0.01686,-0.994728 -0.01686,-1.483662 V 14.811584 H 8.5152826 V 26.849482 H 5.1601823 L 1.9905398,17.070797 h -0.067439 q 0.084299,1.197046 0.1180187,2.242354 0.050579,1.028448 0.050579,1.534242 v 6.002089 z"
         style="font-weight:bold;font-family:monospace;-inkscape-font-specification:'monospace Bold';fill:#2a5b6a;fill-opacity:1"
         id="path5262" /></g><g
       aria-label="N"
       id="text2306-9"
       style="font-size:16.8598px;line-height:1.25;fill:#ffffff;fill-opacity:1;stroke-width:0.351245"
       transform="translate(-0.39324402,0.14654203)"><path
         d="M -0.18153724,26.854547 V 14.816649 H 3.1398435 l 3.1696424,9.694385 h 0.050579 Q 6.2926259,23.330848 6.2589061,22.33612 6.2420461,21.341392 6.2420461,20.852458 V 14.816649 H 8.416961 V 26.854547 H 5.0618607 L 1.8922182,17.075862 h -0.067439 q 0.084299,1.197046 0.1180187,2.242354 0.050579,1.028448 0.050579,1.534242 v 6.002089 z"
         style="font-weight:bold;font-family:monospace;-inkscape-font-specification:'monospace Bold';fill:#f9f9f9;fill-opacity:1"
         id="path5262-0" /></g></g></svg>
