<?xml version="1.0" encoding="UTF-8" standalone="no"?>
<svg
   width="24"
   height="24"
   version="1.1"
   id="svg299"
   sodipodi:docname="nwg-update-available.svg"
   inkscape:version="1.2.2 (b0a8486541, 2022-12-01)"
   xmlns:inkscape="http://www.inkscape.org/namespaces/inkscape"
   xmlns:sodipodi="http://sodipodi.sourceforge.net/DTD/sodipodi-0.dtd"
   xmlns="http://www.w3.org/2000/svg"
   xmlns:svg="http://www.w3.org/2000/svg">
  <sodipodi:namedview
     id="namedview301"
     pagecolor="#ffffff"
     bordercolor="#666666"
     borderopacity="1.0"
     inkscape:showpageshadow="2"
     inkscape:pageopacity="0.0"
     inkscape:pagecheckerboard="0"
     inkscape:deskcolor="#d1d1d1"
     showgrid="false"
     inkscape:zoom="13.906433"
     inkscape:cx="6.6515979"
     inkscape:cy="12.008831"
     inkscape:window-width="952"
     inkscape:window-height="1010"
     inkscape:window-x="0"
     inkscape:window-y="0"
     inkscape:window-maximized="1"
     inkscape:current-layer="svg299" />
  <defs
     id="defs293">
    <style
       id="current-color-scheme"
       type="text/css">
   .ColorScheme-Text { color:#dfdfdf; } .ColorScheme-Highlight { color:#4285f4; } .ColorScheme-NeutralText { color:#ff9800; } .ColorScheme-PositiveText { color:#4caf50; } .ColorScheme-NegativeText { color:#f44336; }
  </style>
  </defs>
  <path
     style="fill:#eeeeee;fill-rule:evenodd;stroke-width:1.25;fill-opacity:1;stroke:#444444;stroke-opacity:1"
     d="M 12.25,2 C 9.5648804,4.462245 5.043247,6.6311258 3.5,7 c 0,6.666236 3.281261,13.888752 8.75,15 0.75149,-0.152703 1.460914,-0.42091 2.126953,-0.787109 a 4.8549309,4.8549309 0 0 1 -0.150391,-1.13086 4.8549309,4.8549309 0 0 1 4.855469,-4.855469 4.8549309,4.8549309 0 0 1 0.244141,0.0078 C 20.412915,12.723957 21,9.8135078 21,7 19.456254,6.6311258 14.934994,4.462245 12.25,2 Z"
     id="path295" />
  <circle
     style="fill:#ff8000;fill-opacity:1;stroke-width:2.14795;stroke-linejoin:round;stroke-miterlimit:2"
     id="path8115"
     cx="19.081171"
     cy="20.081171"
     r="3.8119695" />
  <path
     id="path5496"
     style="fill:#444444;fill-opacity:1;fill-rule:evenodd;stroke:none;stroke-width:1.08079"
     d="m 12.107302,6.5142978 c 0.09907,-0.00318 0.198965,-0.00202 0.298905,0.00168 v 0.00168 C 13.820954,6.5695348 15.11,7.3150107 15.869791,8.483339 l 1.499593,-0.4998561 -1.695485,3.3994121 -3.40279,-1.7005504 1.38138,-0.4610228 C 13.287183,8.9035807 12.828793,8.6959339 12.325149,8.6775605 11.523206,8.6483794 10.775029,9.0617134 10.372976,9.7566591 L 8.5001757,8.6758716 C 9.2500714,7.3769035 10.621274,6.5619514 12.107302,6.5142978 Z m -3.2828902,3.7844432 3.4027892,1.70055 -1.38138,0.461023 c 0.365089,0.317752 0.823696,0.523709 1.32734,0.542082 0.801943,0.02918 1.550119,-0.384154 1.952172,-1.079098 l 1.872802,1.080788 c -0.799782,1.385567 -2.307551,2.219328 -3.906033,2.159885 -1.414205,-0.05188 -2.7021026,-0.797353 -3.4618942,-1.965682 l -1.499592,0.501553 z" />
</svg>
